<svg class="provider-icon" aria-hidden="true" viewBox="30 30 975 975" version="1.1" xmlns="http://www.w3.org/2000/svg" xmlns:xlink="http://www.w3.org/1999/xlink" xml:space="preserve" xmlns:serif="http://www.serif.com/" style="fill-rule:evenodd;clip-rule:evenodd;stroke-linejoin:round;stroke-miterlimit:2;" fill="currentColor"><g><g><path d="M495.397,87.423c176.031,-0 319.245,143.206 319.245,319.228c0,69.171 -21.76,134.997 -62.936,190.331c-40.362,54.266 -95.594,93.686 -159.74,114.018l-17.728,5.629l-42.251,-208.394l11.686,-5.654c38.152,-18.442 62.811,-57.728 62.811,-100.072c-0,-61.256 -49.83,-111.095 -111.078,-111.095c-61.248,0 -111.095,49.839 -111.095,111.095c0,42.344 24.667,81.63 62.819,100.072l11.468,5.553l-68.061,419.443l-190.179,0l-0,-840.154l295.048,-0l-0.009,-0Z" style="fill-rule:nonzero;"/></g></g></svg>